<svg xmlns="http://www.w3.org/2000/svg" viewBox="0 0 64 64">
  <rect width="64" height="64" rx="18" fill="#fff3f8"/>
  <path d="M20 14c-7 5-6 18-2 28 3 8 4 14 10 8 2-2 6-2 8 0 6 6 7 0 10-8 4-10 5-23-2-28-4-3-8-2-12 1-4-3-8-4-12-1Z" fill="#fff" stroke="#c9a7ff" stroke-width="3"/>
  <circle cx="26" cy="31" r="3" fill="#3b2f4a"/>
  <circle cx="38" cy="31" r="3" fill="#3b2f4a"/>
  <path d="M26 40c4 4 8 4 12 0" fill="none" stroke="#3b2f4a" stroke-width="3" stroke-linecap="round"/>
  <path d="M48 13l2 5 5 2-5 2-2 5-2-5-5-2 5-2 2-5Z" fill="#ff8fc7"/>
</svg>
